<svg xmlns="http://www.w3.org/2000/svg" width="106" height="102" viewBox="0 0 106 102">
<g>
<path d="M 35.24 74.58 L 38.97 78.00 L 22.63 78.00 L 25.56 74.94 L 28.50 71.87 L 28.82 54.36 C29.16,35.32 28.67,33.17 23.45,30.79 C19.00,28.77 20.88,28.00 30.26,28.00 L 39.53 28.00 L 47.76 44.25 C52.29,53.19 56.52,61.23 57.16,62.12 C58.09,63.42 57.75,65.09 55.44,70.37 C53.85,74.02 52.26,77.00 51.90,77.00 C51.54,77.00 47.53,69.91 42.98,61.25 C38.43,52.59 33.86,44.15 32.83,42.50 L 30.95 39.50 L 31.22 55.33 L 31.50 71.16 ZM 81.28 75.44 L 84.50 77.98 L 75.12 77.99 L 65.73 78.00 L 68.39 75.91 C73.19,72.14 74.00,69.18 74.00,55.55 C74.00,44.22 73.20,40.43 71.66,44.45 C70.93,46.34 64.43,49.64 59.70,50.53 C56.13,51.20 56.00,51.12 56.01,48.36 C56.02,44.88 60.00,36.14 62.64,33.79 C66.29,30.56 71.75,29.00 79.22,29.06 C84.06,29.11 85.83,29.40 84.50,29.95 C81.76,31.09 78.35,34.92 77.07,38.32 C75.70,41.91 75.69,64.33 77.04,69.20 C77.64,71.36 79.41,73.97 81.28,75.44 Z" fill="rgb(68,88,80)"/>
<path d="M 0.00 51.00 L 0.00 0.00 L 53.00 0.00 L 106.00 0.00 L 106.00 51.00 L 106.00 102.00 L 53.00 102.00 L 0.00 102.00 L 0.00 51.00 ZM 35.24 74.58 L 31.50 71.16 L 31.22 55.33 L 30.95 39.50 L 32.83 42.50 C33.86,44.15 38.43,52.59 42.98,61.25 C47.53,69.91 51.54,77.00 51.90,77.00 C52.26,77.00 53.85,74.02 55.44,70.37 C57.75,65.09 58.09,63.42 57.16,62.12 C56.52,61.23 52.29,53.19 47.76,44.25 L 39.53 28.00 L 30.26 28.00 C20.88,28.00 19.00,28.77 23.45,30.79 C28.67,33.17 29.16,35.32 28.82,54.36 L 28.50 71.87 L 25.56 74.94 L 22.63 78.00 L 30.80 78.00 L 38.97 78.00 L 35.24 74.58 ZM 81.28 75.44 C79.41,73.97 77.64,71.36 77.04,69.20 C75.69,64.33 75.70,41.91 77.07,38.32 C78.35,34.92 81.76,31.09 84.50,29.95 C85.83,29.40 84.06,29.11 79.22,29.06 C71.75,29.00 66.29,30.56 62.64,33.79 C60.00,36.14 56.02,44.88 56.01,48.36 C56.00,51.12 56.13,51.20 59.70,50.53 C64.43,49.64 70.93,46.34 71.66,44.45 C73.20,40.43 74.00,44.22 74.00,55.55 C74.00,69.18 73.19,72.14 68.39,75.91 L 65.73 78.00 L 75.12 77.99 L 84.50 77.98 L 81.28 75.44 Z" fill="rgb(248,245,240)"/>
</g>
</svg>