<svg xmlns="http://www.w3.org/2000/svg" width="2168" height="484" viewBox="0 0 2168 484">
<g>
<path d="M 774.50 456.81 C768.94,454.99 767.62,451.84 766.85,438.51 C765.58,416.32 765.72,413.22 768.11,411.94 C771.99,409.87 772.49,411.92 772.59,430.10 C772.67,445.48 772.87,447.35 774.69,449.79 C776.08,451.67 777.77,452.59 780.22,452.80 C783.12,453.05 784.19,452.56 786.37,449.98 C788.98,446.87 789.00,446.73 789.00,430.05 C789.00,417.33 789.32,412.98 790.32,412.15 C793.32,409.66 794.00,413.01 794.00,430.23 C794.00,449.27 793.17,452.70 787.81,455.97 C784.29,458.12 779.42,458.43 774.50,456.81 ZM 934.17 456.73 C932.34,456.15 929.64,454.09 928.17,452.17 C925.68,448.90 925.48,447.87 925.16,436.70 C924.75,422.17 925.23,419.33 928.76,415.19 C934.14,408.88 946.27,409.31 950.76,415.98 C953.11,419.45 953.36,422.05 951.43,422.69 C950.84,422.89 948.52,421.24 946.26,419.02 C941.51,414.36 938.78,413.99 934.51,417.41 C931.78,419.58 931.46,420.47 931.01,427.15 C930.73,431.19 930.72,437.53 931.00,441.23 C931.41,446.75 931.97,448.42 934.08,450.54 C938.94,455.40 944.22,453.91 948.56,446.47 C949.93,444.12 953.00,445.19 953.00,448.00 C953.00,451.17 949.95,455.12 946.33,456.64 C942.56,458.21 938.89,458.24 934.17,456.73 ZM 1003.72 456.83 C1001.33,456.17 998.95,454.49 997.26,452.28 C994.90,449.17 994.53,447.67 994.17,439.41 C993.56,425.34 994.50,419.91 998.34,415.47 C1001.08,412.30 1002.31,411.68 1006.61,411.26 C1012.68,410.68 1016.78,412.49 1020.17,417.23 C1022.34,420.28 1022.50,421.44 1022.50,434.54 C1022.50,446.28 1022.21,449.03 1020.74,451.28 C1017.13,456.79 1010.89,458.82 1003.72,456.83 ZM 1014.75 450.75 C1017.29,448.03 1017.91,445.61 1018.40,436.50 C1018.94,426.55 1017.51,420.61 1013.85,417.52 C1009.95,414.24 1007.22,414.34 1002.96,417.89 L 999.50 420.79 L 999.50 433.83 L 999.50 446.87 L 1002.44 449.93 C1006.15,453.81 1011.56,454.17 1014.75,450.75 ZM 1962.35 456.46 C1956.41,453.85 1952.42,446.00 1957.03,446.00 C1958.15,446.00 1960.44,447.58 1962.13,449.50 C1964.46,452.15 1966.00,453.00 1968.45,453.00 C1973.92,453.00 1977.23,447.27 1974.64,442.26 C1973.19,439.47 1972.22,438.80 1964.74,435.45 C1962.67,434.52 1959.81,432.37 1958.38,430.68 C1956.10,427.96 1955.84,426.91 1956.21,421.84 C1956.69,415.11 1958.49,412.62 1963.81,411.30 C1971.26,409.44 1979.00,413.46 1979.00,419.17 C1979.00,422.94 1976.62,422.87 1973.00,419.00 C1968.69,414.39 1963.62,415.65 1962.43,421.62 C1961.68,425.37 1964.71,429.37 1970.36,432.08 C1978.15,435.82 1981.00,439.58 1981.00,446.11 C1981.00,455.37 1971.67,460.54 1962.35,456.46 ZM 742.86 456.33 C741.96,456.09 739.74,452.45 737.91,448.20 C736.09,443.96 733.63,438.92 732.45,437.00 C731.26,435.08 729.97,432.49 729.58,431.25 C728.61,428.19 725.41,426.49 724.60,428.60 C724.27,429.46 724.00,435.77 724.00,442.61 C724.00,453.11 723.75,455.16 722.40,455.68 C721.52,456.01 720.40,455.66 719.91,454.90 C719.43,454.13 719.02,444.40 719.02,433.29 C719.00,415.04 719.17,412.98 720.75,412.15 C724.12,410.39 726.55,412.60 730.57,421.08 C738.13,437.01 740.51,441.42 741.72,441.78 C742.64,442.06 743.02,438.44 743.22,427.32 L 743.50 412.50 L 746.00 412.50 L 748.50 412.50 L 748.77 433.93 C749.07,457.75 749.01,457.97 742.86,456.33 ZM 856.95 454.38 C855.43,450.37 856.13,413.14 857.75,411.79 C858.50,411.17 862.36,410.93 867.31,411.19 C877.17,411.70 880.42,413.51 882.07,419.41 C883.54,424.67 882.50,429.62 878.83,434.82 L 875.78 439.13 L 878.89 446.54 C880.60,450.62 882.00,454.44 882.00,455.04 C882.00,455.64 880.77,455.99 879.26,455.82 C876.96,455.55 875.89,454.28 872.68,448.00 C868.85,440.49 866.46,438.22 863.56,439.34 C862.34,439.81 862.00,441.57 862.00,447.43 C862.00,453.92 861.73,455.07 859.99,456.01 C858.27,456.93 857.83,456.70 856.95,454.38 ZM 872.00 432.14 C875.88,430.06 877.15,426.49 875.83,421.39 C875.18,418.92 874.10,417.93 870.56,416.58 C867.14,415.27 865.63,415.13 864.05,415.97 C862.27,416.93 862.00,418.03 862.00,424.49 C862.00,430.49 862.33,432.09 863.75,432.92 C866.29,434.40 868.10,434.23 872.00,432.14 ZM 901.01 454.53 C899.61,450.83 900.22,413.38 901.72,411.88 C902.35,411.25 903.58,411.01 904.45,411.34 C905.85,411.88 906.01,414.65 905.77,434.21 C905.52,454.48 905.34,456.50 903.75,456.81 C902.62,457.03 901.66,456.23 901.01,454.53 ZM 1063.98 455.27 C1062.74,454.41 1058.87,447.69 1055.37,440.35 C1051.88,433.01 1048.56,427.00 1048.01,427.00 C1047.45,427.00 1046.95,428.91 1046.89,431.25 C1046.83,433.59 1046.65,438.20 1046.49,441.50 C1046.32,444.80 1046.15,449.44 1046.09,451.82 C1046.01,455.71 1045.77,456.11 1043.75,455.82 C1041.53,455.50 1041.49,455.21 1040.77,436.00 C1040.37,425.27 1040.26,415.52 1040.52,414.32 C1041.10,411.70 1044.20,410.50 1046.80,411.89 C1047.84,412.45 1049.95,415.74 1051.51,419.20 C1060.79,439.91 1061.90,441.98 1063.45,441.38 C1064.75,440.88 1065.00,438.54 1065.00,427.02 C1065.00,416.81 1065.34,412.96 1066.32,412.15 C1069.39,409.60 1070.00,412.98 1069.99,432.45 C1069.98,442.93 1069.71,452.48 1069.39,453.68 C1068.60,456.62 1066.70,457.18 1063.98,455.27 ZM 1145.75 455.92 C1144.17,455.00 1144.00,452.85 1144.00,433.99 C1144.00,413.91 1144.08,413.03 1146.05,411.97 C1148.52,410.65 1162.99,410.86 1164.74,412.25 C1167.03,414.06 1164.93,415.00 1158.60,415.00 C1150.72,415.00 1148.99,416.54 1149.02,423.58 C1149.02,426.29 1149.36,428.99 1149.77,429.60 C1150.17,430.20 1153.13,430.96 1156.36,431.29 C1159.58,431.61 1162.45,432.12 1162.75,432.41 C1164.10,433.77 1160.50,435.79 1155.96,436.23 C1153.21,436.49 1150.67,437.00 1150.31,437.36 C1149.07,438.60 1148.78,448.72 1149.92,450.86 C1150.93,452.73 1151.94,453.00 1157.98,453.00 C1164.77,453.00 1167.69,454.31 1164.88,456.10 C1162.97,457.31 1147.89,457.17 1145.75,455.92 ZM 1186.25 456.33 C1185.30,455.96 1185.00,450.64 1185.00,434.54 C1185.00,411.49 1185.32,410.11 1190.34,411.37 C1192.15,411.82 1193.52,413.82 1196.07,419.73 C1201.62,432.59 1205.46,439.46 1207.28,439.81 C1208.84,440.12 1209.00,438.89 1209.02,426.82 C1209.03,412.60 1209.73,409.74 1212.72,411.61 C1214.31,412.60 1214.53,414.79 1214.78,432.11 C1214.94,442.77 1214.83,452.46 1214.54,453.64 C1213.96,456.03 1211.76,457.23 1209.53,456.37 C1207.60,455.63 1203.19,448.35 1199.01,439.00 C1195.71,431.63 1192.58,427.09 1191.52,428.15 C1191.23,428.44 1190.95,433.37 1190.92,439.09 C1190.82,454.18 1189.85,457.77 1186.25,456.33 ZM 1245.24 455.84 C1244.35,454.95 1244.00,449.64 1244.00,436.99 C1244.00,424.43 1243.64,418.92 1242.75,417.77 C1242.06,416.88 1239.47,415.76 1237.00,415.29 C1234.10,414.74 1232.50,413.92 1232.50,412.97 C1232.50,411.77 1234.85,411.45 1245.50,411.25 C1252.65,411.11 1259.12,411.40 1259.88,411.89 C1262.27,413.43 1260.05,415.00 1255.50,415.00 C1248.34,415.00 1247.96,416.21 1248.64,436.43 C1249.10,450.03 1248.94,453.86 1247.84,455.29 C1246.76,456.71 1246.22,456.82 1245.24,455.84 ZM 1279.05 455.56 C1278.32,454.68 1278.05,447.25 1278.23,432.87 L 1278.50 411.50 L 1287.87 411.64 C1296.96,411.78 1297.35,411.88 1300.37,414.91 C1303.21,417.75 1303.50,418.61 1303.50,424.35 C1303.50,429.69 1303.08,431.21 1300.75,434.26 C1299.24,436.24 1298.00,438.47 1298.00,439.21 C1298.00,439.95 1299.32,443.68 1300.93,447.49 C1302.54,451.31 1303.63,454.78 1303.37,455.21 C1303.10,455.65 1301.86,456.00 1300.60,456.00 C1298.76,456.00 1297.63,454.59 1294.76,448.71 C1290.87,440.73 1289.03,438.66 1286.30,439.18 C1284.98,439.43 1284.43,440.58 1284.25,443.51 C1283.53,455.02 1281.84,458.93 1279.05,455.56 ZM 1294.95 431.04 C1297.70,428.48 1298.08,427.52 1297.81,423.83 C1297.55,420.26 1296.95,419.19 1294.10,417.28 C1286.95,412.48 1284.00,414.59 1284.00,424.50 C1284.00,428.69 1284.49,432.09 1285.20,432.80 C1287.32,434.92 1291.63,434.15 1294.95,431.04 ZM 1323.67 456.33 C1323.30,455.97 1323.00,445.85 1323.00,433.85 C1323.00,408.47 1321.71,410.71 1335.99,411.20 C1343.14,411.45 1344.53,411.78 1344.81,413.25 C1345.10,414.76 1344.32,415.00 1339.01,415.00 C1330.72,415.00 1329.34,415.91 1328.51,421.90 C1327.56,428.84 1328.92,431.00 1334.29,431.02 C1342.90,431.05 1343.55,435.40 1335.06,436.22 C1332.25,436.49 1329.66,437.01 1329.29,437.38 C1328.92,437.74 1328.44,440.65 1328.21,443.84 C1327.63,451.77 1328.95,453.00 1338.01,453.00 C1344.77,453.00 1347.69,454.32 1344.88,456.10 C1343.27,457.11 1324.65,457.32 1323.67,456.33 ZM 1386.97 454.97 C1385.85,453.85 1382.48,447.75 1379.48,441.40 C1374.07,430.00 1371.82,426.51 1370.62,427.71 C1370.28,428.05 1369.99,434.00 1369.98,440.92 C1369.97,454.19 1369.43,456.42 1366.38,455.84 C1364.62,455.50 1364.48,454.11 1364.23,434.38 C1363.94,411.42 1364.24,410.09 1369.40,411.39 C1371.27,411.86 1372.85,414.13 1376.26,421.25 C1378.69,426.34 1381.54,432.65 1382.59,435.27 C1383.83,438.36 1385.03,439.94 1386.00,439.76 C1387.23,439.53 1387.55,437.06 1387.78,426.20 C1388.00,415.56 1388.35,412.80 1389.54,412.35 C1390.36,412.03 1391.72,412.35 1392.56,413.05 C1394.81,414.92 1394.29,454.58 1392.00,456.02 C1389.86,457.38 1389.25,457.25 1386.97,454.97 ZM 1460.53 455.83 C1460.28,455.10 1459.87,445.38 1459.62,434.23 C1459.16,412.75 1459.48,411.00 1463.92,411.00 C1466.88,411.00 1468.50,413.99 1472.03,425.88 C1473.88,432.14 1476.17,438.22 1477.12,439.38 L 1478.84 441.50 L 1480.05 438.50 C1480.71,436.85 1482.52,431.32 1484.08,426.22 C1487.96,413.53 1489.01,411.56 1492.09,411.20 C1496.76,410.65 1497.06,412.14 1496.77,434.63 C1496.51,454.74 1496.43,455.50 1494.50,455.50 C1492.62,455.50 1492.46,454.63 1491.88,441.00 C1491.53,433.02 1491.19,426.39 1491.13,426.25 C1490.07,424.15 1486.51,430.67 1485.45,436.65 C1483.37,448.34 1480.75,455.00 1478.21,455.00 C1476.68,455.00 1475.39,452.09 1470.96,438.71 C1469.11,433.11 1467.25,429.08 1466.61,429.29 C1465.94,429.51 1465.10,434.94 1464.50,443.00 C1463.82,452.04 1463.10,456.48 1462.25,456.76 C1461.56,456.98 1460.79,456.57 1460.53,455.83 ZM 1542.75 455.92 C1541.17,455.00 1541.00,452.83 1541.00,433.47 C1541.00,408.53 1539.73,410.71 1553.99,411.20 C1561.14,411.45 1562.53,411.78 1562.81,413.25 C1563.10,414.76 1562.33,415.00 1557.30,415.00 C1548.80,415.00 1547.00,416.57 1547.00,424.00 C1547.00,427.23 1547.44,430.15 1547.98,430.49 C1548.51,430.82 1551.21,431.36 1553.98,431.68 C1561.02,432.52 1560.52,436.00 1553.35,436.00 C1548.17,436.00 1547.00,437.54 1547.00,444.34 C1547.00,447.87 1547.52,451.12 1548.20,451.80 C1548.86,452.46 1552.10,453.01 1555.45,453.02 C1562.26,453.03 1565.54,454.32 1563.00,455.98 C1561.03,457.28 1545.00,457.23 1542.75,455.92 ZM 1584.24 455.78 C1582.98,454.26 1582.15,414.15 1583.34,412.25 C1584.48,410.42 1588.44,410.73 1590.32,412.80 C1591.21,413.78 1593.35,417.72 1595.07,421.55 C1596.80,425.37 1599.24,430.77 1600.49,433.53 C1601.75,436.30 1603.47,439.14 1604.32,439.85 C1605.66,440.96 1605.95,440.51 1606.57,436.40 C1606.96,433.81 1607.03,427.50 1606.72,422.39 C1606.14,412.64 1606.94,410.27 1610.37,411.59 C1611.81,412.14 1612.00,414.76 1612.00,433.48 C1612.00,451.35 1611.76,454.96 1610.47,456.02 C1607.32,458.64 1604.74,455.75 1598.01,442.11 C1589.52,424.87 1588.67,424.94 1588.00,442.93 C1587.51,456.07 1586.72,458.78 1584.24,455.78 ZM 1641.74 455.87 C1640.18,455.00 1640.00,452.91 1640.00,435.93 L 1640.00 416.95 L 1637.43 415.98 C1636.02,415.44 1633.62,415.00 1632.10,415.00 C1628.84,415.00 1627.94,414.32 1628.68,412.40 C1629.50,410.24 1655.54,410.36 1656.37,412.53 C1656.98,414.12 1653.59,416.00 1650.13,416.00 C1646.37,416.00 1646.00,417.84 1646.00,436.58 C1646.00,455.67 1645.49,457.97 1641.74,455.87 ZM 1679.07 455.96 C1673.64,453.67 1671.18,447.34 1671.08,435.43 C1670.99,424.78 1672.87,417.41 1676.56,413.94 C1678.81,411.83 1680.11,411.50 1686.19,411.50 C1693.12,411.50 1693.28,411.56 1696.57,415.37 C1700.59,420.01 1701.45,424.54 1700.78,437.37 C1700.04,451.52 1696.77,456.17 1687.21,456.68 C1684.07,456.85 1680.41,456.52 1679.07,455.96 ZM 1692.56 449.93 L 1695.50 446.87 L 1695.50 434.00 L 1695.50 421.13 L 1692.56 418.07 C1689.04,414.39 1685.60,414.13 1681.70,417.25 C1678.40,419.90 1677.05,424.77 1677.05,434.00 C1677.05,441.83 1678.54,448.83 1680.71,451.24 C1683.37,454.18 1689.10,453.55 1692.56,449.93 ZM 1765.20 455.80 C1764.34,454.94 1764.00,448.65 1764.00,433.84 C1764.00,409.38 1763.52,410.32 1775.42,411.37 C1781.67,411.93 1782.83,412.37 1785.34,415.11 C1787.88,417.90 1788.12,418.75 1787.66,423.36 C1787.38,426.19 1786.85,429.93 1786.47,431.68 C1786.00,433.89 1786.28,435.57 1787.40,437.16 C1788.40,438.60 1789.00,441.53 1789.00,445.05 C1789.00,451.44 1786.89,454.31 1780.92,456.02 C1776.18,457.38 1766.65,457.25 1765.20,455.80 ZM 1780.62 451.23 C1784.45,448.10 1784.40,442.54 1780.51,438.66 C1778.59,436.73 1772.94,436.46 1771.20,438.20 C1769.38,440.02 1769.69,449.00 1771.66,451.17 C1773.73,453.46 1777.85,453.49 1780.62,451.23 ZM 1780.00 429.00 C1783.79,425.21 1782.29,418.73 1777.15,416.67 C1771.32,414.34 1770.00,415.70 1770.00,424.04 L 1770.00 431.00 L 1774.00 431.00 C1776.67,431.00 1778.67,430.33 1780.00,429.00 ZM 1832.25 456.34 C1831.30,455.96 1831.00,450.54 1831.00,434.02 C1831.00,415.06 1831.21,412.13 1832.58,411.61 C1835.00,410.68 1850.32,410.91 1851.88,411.90 C1854.51,413.57 1851.85,415.00 1846.10,415.00 C1838.73,415.00 1837.00,416.66 1837.00,423.71 C1837.00,429.68 1838.01,430.77 1844.40,431.64 C1847.97,432.13 1849.02,432.67 1848.79,433.89 C1848.57,435.04 1846.99,435.65 1843.30,436.02 C1840.45,436.31 1837.81,436.86 1837.42,437.25 C1837.03,437.64 1836.49,440.21 1836.23,442.96 C1835.88,446.57 1836.21,448.67 1837.40,450.48 C1838.88,452.74 1839.71,453.00 1845.46,453.00 C1851.80,453.00 1854.62,454.36 1851.88,456.10 C1850.43,457.01 1834.41,457.21 1832.25,456.34 ZM 1871.18 455.72 C1870.51,454.91 1870.11,446.86 1870.09,433.82 C1870.05,411.66 1870.32,410.48 1875.19,411.17 C1877.88,411.55 1882.04,419.20 1889.32,437.13 C1890.13,439.12 1891.28,441.05 1891.87,441.42 C1893.48,442.42 1893.99,438.85 1894.26,424.51 C1894.47,413.06 1894.71,411.48 1896.25,411.19 C1899.20,410.62 1899.68,414.57 1899.21,435.66 C1898.80,454.39 1898.64,455.86 1896.88,456.32 C1893.71,457.15 1891.18,453.96 1886.23,442.91 C1877.48,423.34 1876.00,423.19 1876.00,441.86 C1876.00,450.44 1875.61,454.99 1874.80,455.80 C1873.27,457.33 1872.50,457.31 1871.18,455.72 ZM 1918.49 455.84 C1918.20,455.08 1918.08,444.79 1918.23,432.98 L 1918.50 411.50 L 1928.00 411.25 C1933.22,411.11 1938.12,411.39 1938.88,411.88 C1941.60,413.64 1938.82,415.00 1932.50,415.00 C1924.65,415.00 1923.00,416.70 1923.00,424.75 C1923.00,429.52 1923.26,430.15 1925.57,431.02 C1926.98,431.56 1929.71,432.00 1931.65,432.00 C1936.63,432.00 1935.45,434.28 1929.99,435.21 C1927.60,435.62 1925.20,436.40 1924.66,436.94 C1923.19,438.41 1922.61,448.41 1923.86,450.74 C1924.76,452.41 1926.17,452.84 1931.92,453.17 C1938.78,453.55 1941.03,454.30 1939.62,455.72 C1939.22,456.11 1934.43,456.61 1928.96,456.83 C1921.13,457.15 1918.91,456.94 1918.49,455.84 ZM 2006.75 455.89 C2005.18,455.00 2005.00,452.98 2005.00,436.52 C2005.00,416.02 2004.69,415.00 1998.49,415.00 C1994.20,415.00 1993.08,413.30 1996.50,412.00 C1999.73,410.77 2018.98,410.70 2020.88,411.90 C2023.03,413.27 2021.22,415.00 2017.63,415.00 C2010.93,415.00 2010.72,415.61 2010.24,436.61 C2010.01,447.00 2009.52,455.81 2009.16,456.19 C2008.80,456.57 2007.71,456.43 2006.75,455.89 ZM 823.67 455.33 C823.30,454.97 823.00,446.44 823.00,436.39 C823.00,418.64 822.94,418.07 820.78,416.56 C819.56,415.70 817.38,415.00 815.94,415.00 C812.67,415.00 811.69,414.07 813.13,412.34 C813.95,411.36 817.39,411.00 826.00,411.00 C834.61,411.00 838.05,411.36 838.87,412.34 C840.43,414.23 839.27,415.00 834.89,415.00 C828.66,415.00 827.89,417.07 828.65,431.99 C829.45,447.78 828.57,456.00 826.09,456.00 C825.13,456.00 824.03,455.70 823.67,455.33 ZM 970.00 433.93 L 970.00 411.86 L 972.25 412.18 C974.49,412.50 974.50,412.55 974.77,434.25 L 975.04 456.00 L 972.52 456.00 L 970.00 456.00 L 970.00 433.93 ZM 1411.79 455.46 C1411.23,454.89 1416.43,433.28 1421.17,416.50 C1422.44,412.03 1422.91,411.47 1425.63,411.20 C1429.55,410.81 1430.33,411.94 1432.34,421.00 C1433.26,425.12 1435.40,433.45 1437.10,439.50 C1441.56,455.37 1441.64,456.00 1439.19,456.00 C1437.69,456.00 1436.48,454.55 1434.63,450.50 L 1432.11 445.00 L 1426.18 445.00 C1419.50,445.00 1418.71,445.59 1417.06,451.75 C1416.26,454.75 1415.39,456.00 1414.13,456.00 C1413.14,456.00 1412.09,455.76 1411.79,455.46 ZM 1429.88 439.10 C1430.91,438.44 1431.08,437.03 1430.55,433.47 C1429.81,428.58 1427.17,422.00 1425.93,422.00 C1423.45,422.00 1420.16,436.28 1422.09,438.61 C1423.38,440.16 1427.76,440.44 1429.88,439.10 ZM 1516.67 455.33 C1516.30,454.97 1516.00,445.07 1516.00,433.33 L 1516.00 412.00 L 1518.45 412.00 C1521.66,412.00 1522.23,415.10 1521.62,429.00 C1521.37,434.77 1521.12,443.21 1521.08,447.75 C1521.01,455.05 1520.79,456.00 1519.17,456.00 C1518.16,456.00 1517.03,455.70 1516.67,455.33 ZM 1806.00 434.12 C1806.00,413.29 1806.09,412.21 1807.94,411.73 C1809.01,411.45 1810.14,411.47 1810.44,411.78 C1810.75,412.08 1811.00,422.16 1811.00,434.17 L 1811.00 456.00 L 1808.50 456.00 L 1806.00 456.00 L 1806.00 434.12 ZM 2030.00 453.56 C2030.00,448.70 2038.43,416.70 2040.62,413.25 C2042.07,410.96 2044.50,410.40 2046.76,411.83 C2047.45,412.27 2049.14,416.88 2050.50,422.07 C2051.86,427.25 2054.16,435.77 2055.61,441.00 C2059.65,455.54 2059.68,456.00 2056.74,456.00 C2054.64,456.00 2053.95,455.17 2052.36,450.75 L 2050.48 445.50 L 2044.10 445.50 L 2037.72 445.50 L 2035.73 450.75 C2034.30,454.50 2033.20,456.00 2031.87,456.00 C2030.56,456.00 2030.00,455.28 2030.00,453.56 ZM 2047.96 438.55 C2049.21,437.04 2048.97,435.60 2046.25,428.15 L 2044.65 423.81 L 2042.87 426.15 C2041.89,427.44 2040.57,430.69 2039.92,433.36 C2038.96,437.35 2038.99,438.38 2040.12,439.10 C2042.27,440.46 2046.63,440.15 2047.96,438.55 ZM 2076.70 455.37 C2076.32,454.98 2076.00,445.11 2076.00,433.44 C2076.00,409.48 2075.44,411.00 2084.33,411.01 C2092.30,411.01 2096.81,412.64 2099.05,416.31 C2101.86,420.92 2101.61,428.41 2098.47,433.50 C2095.47,438.38 2095.42,440.01 2098.08,447.01 C2101.55,456.15 2101.56,456.22 2099.01,455.84 C2096.82,455.51 2096.18,454.52 2090.11,442.00 C2089.15,440.03 2087.56,438.39 2086.46,438.24 C2082.66,437.75 2081.63,439.54 2081.05,447.67 C2080.63,453.63 2080.13,455.55 2078.95,455.77 C2078.10,455.94 2077.09,455.75 2076.70,455.37 ZM 2091.46 431.84 C2094.60,430.41 2096.51,424.47 2095.06,420.65 C2093.34,416.13 2085.55,413.42 2083.03,416.46 C2081.17,418.71 2081.14,430.84 2083.00,432.02 C2085.04,433.31 2088.38,433.24 2091.46,431.84 ZM 46.00 438.12 C46.00,436.75 48.24,435.23 51.42,434.43 C56.75,433.09 71.43,425.21 77.24,420.57 C85.15,414.25 91.13,406.33 97.11,394.25 C102.65,383.05 104.31,377.88 106.53,365.00 C108.78,351.89 108.74,116.31 106.48,106.58 C102.05,87.47 88.01,68.84 67.72,55.15 C57.51,48.26 51.51,45.73 32.00,40.07 C30.59,39.66 29.37,38.47 29.20,37.33 C28.47,32.42 26.94,32.52 109.40,32.22 C151.81,32.06 187.48,32.17 188.68,32.47 C190.98,33.03 195.03,39.18 201.54,52.00 C203.63,56.12 207.45,63.10 210.03,67.50 C212.60,71.90 216.97,79.78 219.75,85.00 C222.52,90.22 226.01,96.75 227.51,99.50 C229.01,102.25 232.17,108.17 234.54,112.65 C236.91,117.14 239.93,122.54 241.24,124.65 C242.55,126.77 245.80,132.77 248.47,138.00 C251.14,143.23 254.38,149.19 255.68,151.25 C256.97,153.32 259.89,158.72 262.16,163.25 C264.43,167.79 269.31,176.90 273.00,183.50 C282.18,199.93 293.51,220.83 298.62,230.75 C300.96,235.29 303.73,240.24 304.78,241.75 C305.83,243.26 307.48,246.07 308.45,248.00 C315.54,262.02 320.39,271.28 323.10,276.00 C324.84,279.02 327.83,284.42 329.75,288.00 C333.85,295.65 342.96,309.44 346.25,313.00 C347.52,314.38 349.75,317.08 351.21,319.00 L 353.85 322.50 L 352.08 327.50 C350.26,332.63 348.70,336.10 339.23,356.00 C336.22,362.33 332.63,369.98 331.26,373.00 C329.88,376.02 326.33,383.61 323.38,389.85 C320.42,396.10 318.00,401.41 318.00,401.67 C318.00,402.13 314.84,409.23 310.50,418.50 C309.21,421.25 307.05,425.99 305.69,429.03 C302.31,436.62 300.66,437.89 297.38,435.41 C294.98,433.60 291.88,428.24 281.24,407.50 C278.70,402.55 275.60,396.86 274.36,394.85 C273.12,392.85 269.32,385.87 265.92,379.35 C262.52,372.83 259.40,367.05 259.00,366.50 C258.10,365.27 254.22,358.25 248.24,347.01 C245.75,342.33 242.49,336.25 240.99,333.50 C239.49,330.75 233.87,320.40 228.51,310.50 C218.31,291.70 212.23,280.66 210.51,277.83 C209.03,275.40 206.95,271.61 201.51,261.50 C198.85,256.55 195.70,250.93 194.51,249.00 C193.32,247.07 189.74,240.36 186.55,234.07 C183.36,227.78 179.10,219.90 177.07,216.57 C175.05,213.23 171.66,207.12 169.54,203.00 C167.43,198.88 164.71,193.93 163.51,192.00 C162.31,190.07 158.71,183.55 155.51,177.50 C152.32,171.45 149.37,166.05 148.98,165.50 C148.58,164.95 146.33,160.90 143.97,156.50 C137.64,144.66 132.90,135.88 131.01,132.50 C130.08,130.85 128.76,128.44 128.07,127.14 C127.37,125.83 126.43,125.17 125.96,125.64 C125.49,126.11 125.02,175.33 124.92,235.00 C124.73,351.08 124.72,350.76 129.74,369.50 C132.99,381.62 145.17,402.07 154.16,410.51 C166.16,421.76 170.28,424.33 193.92,435.37 C201.45,438.88 199.13,439.00 121.58,439.00 C78.89,439.00 46.00,438.62 46.00,438.12 ZM 399.00 438.12 C399.00,436.62 401.55,435.04 405.10,434.35 C406.97,433.98 411.55,432.45 415.27,430.94 C434.03,423.35 447.85,412.14 459.18,395.33 C470.01,379.25 473.04,371.67 476.69,351.50 C478.36,342.28 478.50,333.70 478.50,242.08 C478.50,176.69 478.16,142.55 477.50,142.34 C476.95,142.15 475.26,144.37 473.75,147.25 C469.09,156.14 456.58,171.36 447.14,179.63 C433.71,191.39 421.39,198.69 404.50,204.90 C399.55,206.72 393.92,208.84 392.00,209.61 C385.04,212.40 372.58,214.98 356.49,216.97 C347.46,218.09 339.05,218.99 337.79,218.98 C332.71,218.95 332.48,218.19 332.78,202.29 C333.20,180.01 335.41,166.15 341.55,147.35 C345.93,133.96 350.23,123.98 353.96,118.56 C355.63,116.13 357.00,113.86 357.00,113.51 C357.00,111.03 372.35,91.79 381.73,82.52 C386.62,77.69 401.37,66.29 408.50,61.83 C426.79,50.39 451.61,41.44 474.56,38.01 C478.93,37.35 486.61,36.18 491.62,35.41 C501.46,33.89 534.57,33.52 558.32,34.65 C569.94,35.21 572.04,35.56 572.50,37.01 C573.53,40.25 571.87,41.74 565.19,43.54 C552.34,47.02 535.51,57.59 524.43,69.13 C510.46,83.69 504.08,94.83 499.48,112.70 L 496.93 122.60 L 497.25 239.55 C497.57,355.71 497.59,356.55 499.73,364.50 C502.89,376.21 506.51,384.40 512.44,393.26 C524.37,411.10 534.45,420.19 551.61,428.57 C557.72,431.56 563.28,434.00 563.96,434.00 C565.89,434.00 572.00,437.13 572.00,438.11 C572.00,438.62 535.08,439.00 485.50,439.00 C436.55,439.00 399.00,438.62 399.00,438.12 ZM 1730.10 436.62 C1728.58,434.79 1730.62,434.00 1736.92,434.00 C1742.24,434.00 1743.51,434.68 1741.87,436.66 C1740.38,438.45 1731.60,438.42 1730.10,436.62 ZM 1008.00 402.25 C1008.01,401.22 1013.91,395.00 1014.88,395.00 C1016.88,395.00 1016.70,396.52 1014.34,399.62 C1012.07,402.60 1007.99,404.29 1008.00,402.25 ZM 1116.90 324.01 C1107.62,322.39 1100.95,317.27 1098.32,309.72 C1095.75,302.34 1095.97,283.73 1099.22,234.00 C1102.42,185.04 1103.41,155.79 1102.04,151.08 C1100.49,145.76 1096.44,142.19 1091.10,141.41 C1084.84,140.50 1082.81,139.31 1083.19,136.73 C1083.44,134.98 1084.59,134.38 1089.50,133.41 C1092.80,132.76 1099.74,131.28 1104.93,130.12 C1116.06,127.62 1121.85,127.55 1128.04,129.83 C1134.31,132.14 1136.37,133.83 1138.86,138.71 C1141.62,144.14 1141.65,151.67 1139.01,183.50 C1136.15,218.06 1133.94,254.48 1133.31,277.51 C1132.68,300.23 1133.36,303.29 1140.00,307.81 C1143.25,310.03 1144.22,310.17 1153.71,309.77 C1165.87,309.25 1167.37,310.40 1160.20,314.73 C1147.33,322.50 1129.79,326.26 1116.90,324.01 ZM 1454.06 323.97 C1448.20,322.74 1443.08,318.54 1440.00,312.45 C1437.54,307.58 1437.50,307.13 1437.62,285.01 C1437.68,272.65 1438.30,251.50 1439.00,238.01 C1439.70,224.53 1440.06,205.18 1439.81,195.00 C1439.42,179.24 1439.03,175.61 1437.18,170.50 C1433.75,161.07 1430.34,156.97 1422.66,153.05 C1416.24,149.77 1415.38,149.60 1405.70,149.63 C1393.53,149.66 1387.26,151.70 1378.06,158.61 C1371.70,163.39 1362.90,174.29 1358.72,182.56 C1355.39,189.15 1353.00,200.94 1353.01,210.71 C1353.02,214.99 1352.58,227.95 1352.02,239.50 C1351.47,251.05 1350.56,273.77 1350.00,290.00 C1349.09,316.12 1348.78,319.65 1347.24,320.81 C1345.94,321.79 1341.55,322.04 1329.71,321.81 C1311.98,321.46 1311.59,321.30 1312.45,314.50 C1313.02,309.95 1313.50,300.19 1315.08,260.50 C1315.69,245.10 1316.37,232.21 1316.59,231.86 C1316.81,231.50 1317.02,219.51 1317.07,205.22 C1317.14,183.89 1316.87,178.35 1315.55,174.36 C1311.75,162.83 1306.81,156.56 1297.80,151.83 C1294.14,149.92 1292.00,149.59 1283.50,149.64 C1274.30,149.68 1272.98,149.95 1267.00,152.92 C1252.76,159.98 1244.19,168.88 1236.58,184.50 C1234.17,189.45 1231.71,196.20 1231.11,199.50 C1230.51,202.80 1229.57,219.68 1229.02,237.00 C1227.17,295.13 1225.86,320.46 1224.64,321.23 C1222.56,322.58 1192.35,322.14 1191.26,320.75 C1190.25,319.47 1190.81,294.68 1193.02,243.00 C1195.16,192.72 1195.82,159.66 1194.77,154.50 C1193.29,147.22 1188.16,142.55 1180.35,141.38 C1173.81,140.39 1172.23,138.20 1176.19,135.62 C1179.68,133.34 1197.52,128.99 1206.00,128.34 C1219.39,127.32 1228.74,131.72 1232.60,140.86 C1233.78,143.65 1234.02,146.85 1233.63,154.50 C1233.36,160.00 1232.82,166.19 1232.45,168.25 C1231.62,172.88 1232.89,173.07 1236.10,168.81 C1252.10,147.52 1263.73,138.15 1281.65,132.09 C1299.12,126.18 1316.05,127.07 1331.65,134.70 C1341.66,139.60 1350.42,150.01 1353.94,161.17 C1355.68,166.68 1357.37,167.62 1359.52,164.27 C1361.98,160.41 1376.19,146.65 1381.28,143.19 C1405.11,126.99 1430.04,123.75 1452.49,133.92 C1463.30,138.82 1472.26,149.85 1475.61,162.35 C1477.34,168.77 1477.54,206.96 1476.00,234.50 C1475.42,244.95 1474.84,263.62 1474.72,276.00 C1474.52,296.93 1474.64,298.74 1476.50,301.90 C1479.55,307.07 1483.12,309.26 1488.67,309.35 C1491.33,309.39 1494.69,309.11 1496.15,308.72 C1499.00,307.96 1500.45,309.66 1499.36,312.50 C1498.67,314.30 1488.51,319.28 1479.98,322.01 C1472.70,324.33 1460.27,325.28 1454.06,323.97 ZM 1576.00 324.34 C1567.02,323.16 1554.32,317.96 1546.00,312.07 C1538.14,306.50 1529.16,294.22 1524.68,282.91 C1514.75,257.86 1517.46,212.89 1530.48,186.89 C1542.83,162.20 1560.51,144.95 1583.38,135.27 C1592.80,131.28 1608.55,128.00 1618.26,128.00 C1626.66,128.00 1641.26,130.30 1653.32,133.54 C1664.48,136.52 1670.78,136.62 1683.59,133.98 C1693.36,131.97 1693.42,131.97 1695.38,133.93 C1697.30,135.85 1697.31,136.51 1696.13,159.20 C1695.46,172.02 1694.26,195.55 1693.47,211.50 C1692.67,227.45 1691.49,250.48 1690.86,262.67 C1689.15,295.20 1690.18,301.51 1698.04,306.81 C1700.95,308.77 1702.58,309.08 1708.78,308.90 C1716.75,308.67 1718.82,309.61 1717.16,312.70 C1716.08,314.72 1708.17,318.95 1700.88,321.41 C1689.34,325.31 1674.10,325.53 1666.87,321.90 C1662.35,319.64 1657.00,311.81 1657.00,307.47 C1657.00,302.35 1655.80,295.00 1654.96,295.00 C1654.53,295.00 1650.33,298.76 1645.61,303.37 C1638.69,310.11 1635.24,312.60 1627.77,316.24 C1613.77,323.04 1608.59,324.28 1593.00,324.56 C1585.57,324.69 1577.93,324.59 1576.00,324.34 ZM 1622.43 305.35 C1634.12,302.16 1645.75,292.43 1651.54,281.00 C1655.27,273.63 1655.89,267.99 1656.94,232.09 C1657.51,212.52 1658.18,190.27 1658.44,182.65 C1659.16,161.10 1656.24,151.98 1646.18,144.30 C1640.49,139.97 1633.38,137.86 1622.50,137.28 C1606.69,136.44 1593.93,141.28 1582.64,152.40 C1577.20,157.76 1575.14,160.82 1570.66,170.19 C1561.19,189.97 1557.18,211.28 1558.38,235.50 C1559.45,257.26 1561.77,268.41 1567.68,280.17 C1578.00,300.72 1600.86,311.23 1622.43,305.35 ZM 1946.50 324.34 C1930.64,322.53 1911.03,311.52 1902.63,299.72 C1891.19,283.65 1888.03,271.93 1888.01,245.50 C1887.99,214.34 1893.97,193.16 1909.05,171.00 C1926.69,145.07 1957.57,128.00 1986.84,128.00 C1992.85,128.00 2010.85,130.63 2017.50,132.48 C2028.71,135.60 2031.02,136.00 2037.62,135.99 C2041.40,135.99 2048.24,135.09 2052.81,133.99 C2058.92,132.53 2061.64,132.27 2063.06,133.03 C2065.78,134.49 2065.83,131.51 2061.37,246.63 C2059.38,298.10 2059.56,300.65 2065.54,305.90 C2069.83,309.67 2074.88,310.67 2081.29,309.02 C2085.41,307.97 2086.38,307.99 2087.10,309.13 C2088.51,311.35 2087.69,312.30 2080.92,316.28 C2070.34,322.50 2063.10,324.23 2049.21,323.83 C2037.99,323.52 2037.13,323.34 2033.67,320.70 C2028.36,316.65 2026.80,312.88 2026.22,302.78 C2025.95,297.95 2025.31,294.00 2024.81,294.00 C2023.79,294.00 2020.02,297.87 2016.20,302.82 C2011.19,309.35 1997.30,317.68 1983.50,322.44 C1978.45,324.18 1955.44,325.37 1946.50,324.34 ZM 1991.32 305.50 C1999.64,303.34 2004.11,300.76 2011.42,293.93 C2017.95,287.82 2022.47,280.34 2024.97,271.50 C2027.40,262.95 2029.08,166.74 2026.93,159.90 C2023.86,150.15 2017.13,143.31 2007.49,140.14 C1979.31,130.89 1952.59,143.32 1939.26,171.89 C1928.68,194.56 1924.86,223.30 1928.60,252.11 C1932.45,281.86 1944.81,299.14 1966.50,305.15 C1974.17,307.27 1984.01,307.41 1991.32,305.50 ZM 739.00 321.00 C736.11,320.59 735.50,320.08 735.50,318.09 C735.50,316.00 736.30,315.46 741.52,313.98 C749.15,311.83 752.82,309.92 756.14,306.34 C762.31,299.68 764.38,291.54 766.00,267.50 C766.59,258.70 767.73,242.27 768.54,231.00 C769.34,219.73 770.44,203.75 770.98,195.50 C771.52,187.25 772.20,178.48 772.50,176.00 C773.15,170.44 774.58,151.38 776.50,122.50 C777.30,110.40 778.26,96.86 778.62,92.42 C779.62,80.08 776.21,72.02 767.75,66.69 C766.24,65.74 761.52,64.16 757.25,63.19 C751.93,61.97 749.50,60.96 749.50,59.96 C749.50,58.73 754.61,58.37 782.50,57.66 C805.52,57.07 816.33,57.14 818.26,57.88 C820.41,58.72 822.03,61.10 825.64,68.73 C828.18,74.10 831.06,80.53 832.03,83.00 C834.72,89.81 839.85,101.78 842.96,108.50 C844.48,111.80 846.49,116.30 847.43,118.50 C848.37,120.70 849.54,123.40 850.03,124.50 C853.65,132.62 861.33,150.26 867.66,165.00 C871.79,174.62 875.76,183.85 876.50,185.50 C879.26,191.73 886.28,207.67 888.16,212.00 C889.23,214.48 890.51,217.40 890.99,218.50 C891.48,219.60 894.01,225.68 896.62,232.00 C899.23,238.32 902.11,244.74 903.03,246.25 C904.59,248.85 904.77,248.91 906.26,247.25 C907.71,245.63 929.00,202.84 929.00,201.54 C929.00,201.22 932.28,194.33 936.29,186.23 C940.31,178.13 944.55,169.25 945.73,166.50 C948.24,160.61 958.30,139.39 968.24,119.00 C972.13,111.03 976.53,101.80 978.04,98.50 C980.90,92.21 989.08,74.83 994.12,64.35 C996.24,59.92 997.75,58.03 999.52,57.59 C1003.22,56.66 1062.17,57.12 1064.75,58.10 C1067.81,59.26 1067.58,60.84 1064.25,61.54 C1050.79,64.37 1044.21,68.98 1041.03,77.82 C1038.66,84.43 1037.56,106.92 1035.76,186.00 C1034.13,257.84 1034.13,292.22 1035.75,297.60 C1038.61,307.03 1044.22,312.00 1054.17,313.91 C1065.58,316.10 1066.50,316.44 1066.50,318.54 C1066.50,320.40 1065.43,320.54 1045.50,321.29 C1017.27,322.36 968.41,321.81 967.01,320.41 C965.16,318.56 967.04,316.08 970.85,315.38 C980.94,313.50 987.12,308.59 989.38,300.66 C991.95,291.65 992.17,287.58 994.49,207.27 C995.30,179.10 996.18,154.35 996.45,152.27 C996.71,150.20 997.19,134.66 997.51,117.75 C997.99,92.89 997.85,87.00 996.80,87.00 C996.08,87.01 994.63,89.14 993.57,91.75 C992.50,94.36 988.56,102.89 984.82,110.71 C981.07,118.52 978.00,125.22 978.00,125.60 C978.00,125.97 973.72,135.01 968.50,145.68 C963.28,156.35 959.00,165.25 959.00,165.45 C959.00,165.66 955.17,173.72 950.50,183.36 C945.83,193.00 942.00,201.07 942.00,201.31 C942.00,201.54 938.37,209.33 933.93,218.61 C929.50,227.90 924.70,237.98 923.28,241.00 C915.29,257.97 912.00,265.13 912.00,265.56 C912.00,265.82 910.25,269.74 908.11,274.27 C902.67,285.75 898.00,296.06 898.00,296.57 C898.00,296.80 896.61,299.94 894.90,303.55 L 891.81 310.11 L 887.68 309.80 C883.61,309.50 883.51,309.40 880.88,303.00 C876.93,293.40 874.07,286.76 869.02,275.50 C868.04,273.30 865.36,266.84 863.08,261.14 C860.79,255.44 858.04,249.03 856.95,246.90 C855.86,244.76 852.90,237.95 850.38,231.76 C847.85,225.57 844.68,218.06 843.33,215.08 C840.26,208.32 831.00,186.18 831.00,185.61 C831.00,185.38 829.17,181.21 826.92,176.35 C821.81,165.25 821.81,165.27 817.61,154.89 C815.70,150.16 812.49,142.73 810.48,138.39 C806.77,130.35 800.54,115.92 795.54,103.74 C790.73,92.02 790.64,92.31 789.02,124.50 C787.30,158.79 784.74,200.39 780.96,255.50 C778.61,289.75 779.25,298.28 784.73,305.76 C788.44,310.82 797.22,314.33 808.50,315.25 C812.42,315.57 813.43,319.61 809.81,320.49 C806.86,321.22 743.67,321.67 739.00,321.00 ZM 1749.25 321.34 C1748.34,320.97 1748.00,317.35 1747.98,308.17 C1747.97,295.90 1748.39,285.08 1751.55,216.00 C1752.37,198.12 1753.14,176.52 1753.27,168.00 C1753.48,154.05 1753.30,152.16 1751.50,149.10 C1748.64,144.25 1745.28,142.14 1739.00,141.25 C1734.47,140.62 1733.45,140.11 1733.20,138.37 C1733.01,137.06 1733.58,135.98 1734.70,135.55 C1738.47,134.07 1754.82,130.12 1762.34,128.88 C1776.70,126.50 1787.66,131.31 1791.64,141.73 C1793.03,145.37 1793.20,148.30 1792.66,159.54 C1792.31,166.95 1792.35,172.99 1792.76,172.97 C1793.17,172.96 1795.95,169.58 1798.95,165.46 C1804.82,157.42 1816.96,144.90 1823.60,140.04 C1833.18,133.05 1847.06,128.00 1856.74,128.00 C1862.03,128.00 1871.28,130.64 1875.37,133.33 C1882.26,137.84 1885.20,146.51 1883.56,157.47 C1882.68,163.32 1877.46,169.48 1871.99,171.12 C1866.10,172.89 1861.67,171.56 1857.30,166.72 C1847.93,156.34 1844.35,153.36 1839.72,152.06 C1831.37,149.72 1822.17,153.24 1811.98,162.68 C1797.69,175.91 1789.00,195.06 1789.00,213.31 C1789.00,217.27 1788.54,228.60 1787.97,238.50 C1787.39,248.40 1786.30,270.59 1785.54,287.81 C1784.61,308.74 1783.75,319.60 1782.95,320.56 C1782.00,321.71 1778.58,321.98 1766.13,321.92 C1757.53,321.88 1749.94,321.62 1749.25,321.34 ZM 1115.62 74.53 C1102.23,69.76 1098.91,53.20 1109.05,41.69 C1112.98,37.22 1119.97,33.99 1125.67,34.00 C1129.72,34.00 1136.90,37.07 1140.35,40.28 C1143.79,43.46 1146.42,51.05 1145.67,55.66 C1143.30,70.28 1128.96,79.28 1115.62,74.53 Z" fill="#5f6f64"/>
</g>
</svg>